<?xml version="1.0" encoding="UTF-8" standalone="no"?>
<!-- Created with Inkscape (http://www.inkscape.org/) -->

<svg
   xmlns:dc="http://purl.org/dc/elements/1.1/"
   xmlns:cc="http://creativecommons.org/ns#"
   xmlns:rdf="http://www.w3.org/1999/02/22-rdf-syntax-ns#"
   xmlns:svg="http://www.w3.org/2000/svg"
   xmlns="http://www.w3.org/2000/svg"
   xmlns:sodipodi="http://sodipodi.sourceforge.net/DTD/sodipodi-0.dtd"
   xmlns:inkscape="http://www.inkscape.org/namespaces/inkscape"
   width="244.27635mm"
   height="55.862358mm"
   viewBox="0 0 244.27635 55.862358"
   version="1.1"
   id="svg44"
   inkscape:version="0.92.5 (2060ec1f9f, 2020-04-08)"
   sodipodi:docname="logo.svg"
   inkscape:export-filename="/home/user/Downloads/logo.png"
   inkscape:export-xdpi="96"
   inkscape:export-ydpi="96">
  <defs
     id="defs38" />
  <sodipodi:namedview
     id="base"
     pagecolor="#ffffff"
     bordercolor="#666666"
     borderopacity="1.0"
     inkscape:pageopacity="0.0"
     inkscape:pageshadow="2"
     inkscape:zoom="0.35"
     inkscape:cx="1064.8591"
     inkscape:cy="-95.457649"
     inkscape:document-units="mm"
     inkscape:current-layer="layer1"
     showgrid="false"
     inkscape:window-width="1300"
     inkscape:window-height="704"
     inkscape:window-x="66"
     inkscape:window-y="27"
     inkscape:window-maximized="1" />
  <metadata
     id="metadata41">
    <rdf:RDF>
      <cc:Work
         rdf:about="">
        <dc:format>image/svg+xml</dc:format>
        <dc:type
           rdf:resource="http://purl.org/dc/dcmitype/StillImage" />
        <dc:title />
      </cc:Work>
    </rdf:RDF>
  </metadata>
  <g
     inkscape:label="Camada 1"
     inkscape:groupmode="layer"
     id="layer1"
     transform="translate(18.503435,-133.91452)">
    <path
       d="m 9.4277666,134.07576 c 15.3368244,0 27.7699034,12.43308 27.7699034,27.76991 0,15.33671 -12.433079,27.76996 -27.7699034,27.76996 -15.336712,0 -27.7699576,-12.43325 -27.7699576,-27.76996 0,-15.33683 12.4332456,-27.76991 27.7699576,-27.76991 z m -10.950143,38.19019 10.942525,-8.52384 10.9578734,8.52384 c 0.78379,0.60942 1.805763,0.81336 1.805763,1.80593 v 2.89985 c 0,0.99105 -0.956855,2.31875 -1.805763,1.80531 l -10.9582124,-6.62948 -10.942186,6.62948 c -0.847723,0.5135 -1.805932,-0.81206 -1.805932,-1.80531 v -2.89985 c 0,-0.99331 1.022594,-1.1956 1.805932,-1.80593 z m 0,-9.47099 10.942525,-8.52401 10.9578734,8.52401 c 0.78379,0.60943 1.805763,0.81381 1.805763,1.80531 v 2.90031 c 0,0.99122 -0.956855,2.3192 -1.805763,1.80548 l -10.9582124,-6.62966 -10.942186,6.62966 c -0.847723,0.51349 -1.805932,-0.81263 -1.805932,-1.80548 v -2.90031 c 0,-0.99285 1.022594,-1.19515 1.805932,-1.80531 z m 0,-9.47116 10.942525,-8.52383 10.9578734,8.52383 c 0.78379,0.60943 1.805763,0.81336 1.805763,1.80549 v 2.9003 c 0,0.9915 -0.956855,2.31875 -1.805763,1.80531 l -10.9582124,-6.62993 -10.942186,6.62993 c -0.847723,0.5135 -1.805932,-0.81246 -1.805932,-1.80531 v -2.9003 c 0,-0.99331 1.022594,-1.19516 1.805932,-1.80549 z"
       style="fill:#ff4169;fill-rule:evenodd;stroke:none;stroke-width:0.32248789;stroke-linecap:butt;stroke-linejoin:miter;stroke-dasharray:none;fill-opacity:1"
       id="path2"
       inkscape:connector-curvature="0" />
    <text
       x="41.919518"
       y="171.82759"
       id="text6"
       style="font-size:17.91599464px;stroke-width:1.49299943">
      <tspan
         font-size="24.0000"
         id="tspan4"
         style="font-style:normal;font-variant:normal;font-weight:normal;font-stretch:normal;font-size:35.83198929px;font-family:Ubuntu;-inkscape-font-specification:Ubuntu;fill:#ffffff;stroke-width:1.49299943">Avivamedia</tspan>
    </text>
  </g>
</svg>
